<svg width="1018" height="157" viewBox="0 0 1018 157" fill="none" xmlns="http://www.w3.org/2000/svg">
<path d="M29.6492 76.8607C29.6492 83.0408 29.6492 89.0091 29.6492 94.7657C29.7342 100.522 29.8188 106.194 29.9037 111.782H39.9565C49.7971 111.782 57.3474 108.607 62.607 102.258C67.8666 95.8238 70.4965 86.8503 70.4965 75.3369C70.4965 63.4003 67.9092 54.2996 62.7342 48.0351C57.5593 41.7705 50.3487 38.6382 41.1017 38.6382H29.9037C29.8188 44.0563 29.7342 49.6011 29.6492 55.2732C29.6492 60.8606 29.6492 66.4902 29.6492 72.1623V76.8607ZM5.599 38.0032V32.7968H43.1377C51.2817 32.7968 58.4501 34.4476 64.643 37.7493C70.8359 40.9661 75.6714 45.7493 79.1495 52.0986C82.6276 58.3631 84.3667 66.1092 84.3667 75.3369C84.3667 84.4799 82.458 92.226 78.6405 98.5752C74.823 104.84 69.6057 109.623 62.9887 112.925C56.4567 116.141 49.0336 117.75 40.72 117.75H5.599V112.544L17.306 111.147C17.4757 105.729 17.5605 100.226 17.5605 94.6387C17.5605 88.9666 17.5605 83.0408 17.5605 76.8607V72.1623C17.5605 66.6597 17.5605 61.1993 17.5605 55.7812C17.5605 50.2786 17.4757 44.8182 17.306 39.4001L5.599 38.0032ZM143.279 119.02C140.225 119.02 137.68 118.131 135.644 116.353C133.608 114.575 132.335 112.205 131.826 109.242C128.348 112.628 125.294 115.168 122.664 116.861C120.034 118.554 116.853 119.401 113.12 119.401C108.454 119.401 104.425 118.089 101.032 115.464C97.7231 112.755 96.0689 108.776 96.0689 103.528C96.0689 101.073 96.6202 98.7869 97.7231 96.6704C98.9107 94.5539 101.032 92.4799 104.086 90.4482C107.14 88.4164 111.508 86.3846 117.192 84.3529C119.143 83.6757 121.392 82.956 123.937 82.1941C126.482 81.4322 129.027 80.755 131.572 80.1624V76.9877C131.572 70.8077 130.638 66.7019 128.772 64.6701C126.906 62.6384 123.852 61.6225 119.61 61.6225C118.677 61.6225 117.616 61.6648 116.429 61.7495C115.326 61.8342 114.096 62.0457 112.739 62.3844L110.321 70.6385C109.133 74.702 106.927 76.7338 103.704 76.7338C100.141 76.7338 98.1472 74.9982 97.7231 71.5274C98.9107 66.7019 101.71 62.8924 106.122 60.0987C110.618 57.2203 116.089 55.7812 122.537 55.7812C129.239 55.7812 134.201 57.4742 137.425 60.8606C140.649 64.1622 142.261 69.8343 142.261 77.8766V104.924C142.261 107.633 142.685 109.581 143.533 110.766C144.381 111.866 145.484 112.417 146.842 112.417C147.944 112.417 148.878 112.163 149.641 111.655C150.405 111.147 151.126 110.47 151.804 109.623L154.349 112.417C152.822 114.872 151.126 116.607 149.259 117.623C147.478 118.554 145.484 119.02 143.279 119.02ZM107.394 101.623C107.394 105.009 108.37 107.422 110.321 108.861C112.272 110.3 114.69 111.02 117.574 111.02C118.847 111.02 120.034 110.851 121.137 110.512C122.325 110.173 123.724 109.538 125.336 108.607C126.948 107.591 129.027 106.152 131.572 104.29V84.8608C129.366 85.4535 127.203 86.1307 125.082 86.8926C122.961 87.5697 121.222 88.1624 119.865 88.6704C116.217 90.1095 113.502 91.591 111.721 93.1149C109.939 94.6387 108.751 96.1203 108.158 97.5593C107.649 98.9984 107.394 100.353 107.394 101.623ZM181.172 119.401C176.761 119.401 173.24 118.216 170.611 115.845C167.981 113.475 166.666 109.835 166.666 104.924C166.666 103.316 166.666 101.75 166.666 100.226C166.75 98.6175 166.793 96.5857 166.793 94.1307V64.1622H156.231V58.5749L167.557 57.178L170.865 40.162H178.5L177.737 57.432H194.915V64.1622H177.609V103.528C177.609 106.745 178.246 109.115 179.518 110.639C180.791 112.078 182.487 112.798 184.608 112.798C186.05 112.798 187.408 112.501 188.68 111.909C190.037 111.316 191.522 110.47 193.134 109.369L196.188 112.671C192.709 117.157 187.704 119.401 181.172 119.401ZM249.403 119.02C246.349 119.02 243.804 118.131 241.768 116.353C239.732 114.575 238.46 112.205 237.951 109.242C234.473 112.628 231.419 115.168 228.789 116.861C226.159 118.554 222.977 119.401 219.245 119.401C214.579 119.401 210.549 118.089 207.156 115.464C203.848 112.755 202.193 108.776 202.193 103.528C202.193 101.073 202.745 98.7869 203.848 96.6704C205.035 94.5539 207.156 92.4799 210.21 90.4482C213.264 88.4164 217.633 86.3846 223.317 84.3529C225.268 83.6757 227.516 82.956 230.061 82.1941C232.606 81.4322 235.151 80.755 237.696 80.1624V76.9877C237.696 70.8077 236.764 66.7019 234.897 64.6701C233.029 62.6384 229.976 61.6225 225.735 61.6225C224.801 61.6225 223.741 61.6648 222.553 61.7495C221.45 61.8342 220.22 62.0457 218.863 62.3844L216.445 70.6385C215.258 74.702 213.052 76.7338 209.828 76.7338C206.265 76.7338 204.272 74.9982 203.848 71.5274C205.035 66.7019 207.835 62.8924 212.246 60.0987C216.742 57.2203 222.214 55.7812 228.661 55.7812C235.364 55.7812 240.327 57.4742 243.55 60.8606C246.772 64.1622 248.385 69.8343 248.385 77.8766V104.924C248.385 107.633 248.808 109.581 249.658 110.766C250.507 111.866 251.608 112.417 252.966 112.417C254.07 112.417 255.002 112.163 255.766 111.655C256.529 111.147 257.251 110.47 257.929 109.623L260.474 112.417C258.947 114.872 257.251 116.607 255.384 117.623C253.602 118.554 251.608 119.02 249.403 119.02ZM213.519 101.623C213.519 105.009 214.494 107.422 216.445 108.861C218.396 110.3 220.814 111.02 223.699 111.02C224.971 111.02 226.159 110.851 227.262 110.512C228.449 110.173 229.849 109.538 231.461 108.607C233.073 107.591 235.151 106.152 237.696 104.29V84.8608C235.491 85.4535 233.328 86.1307 231.206 86.8926C229.085 87.5697 227.346 88.1624 225.989 88.6704C222.341 90.1095 219.627 91.591 217.845 93.1149C216.064 94.6387 214.876 96.1203 214.282 97.5593C213.773 98.9984 213.519 100.353 213.519 101.623Z" fill="white"/>
<path d="M453.068 38.0032V32.7968H487.807V38.5112L475.591 39.654L496.969 100.48L517.584 39.781L506.386 38.5112V32.7968H535.78V38.0032L524.71 39.5271L497.86 118.639H492.261L462.612 39.1461L453.068 38.0032ZM537.506 117.75V113.179L547.05 111.401C547.133 108.184 547.177 104.713 547.177 100.988C547.261 97.1784 547.305 93.8768 547.305 91.0831V85.1148C547.305 81.6439 547.261 78.7655 547.177 76.4798C547.177 74.1093 547.092 71.6543 546.923 69.1146L536.743 67.9718V63.5273L556.339 55.7812L558.248 57.051L557.866 74.321V91.0831C557.866 93.8768 557.866 97.1784 557.866 100.988C557.95 104.713 558.035 108.184 558.121 111.401L567.028 113.179V117.75H537.506ZM552.522 41.8128C550.146 41.8128 548.11 41.0509 546.414 39.5271C544.801 38.0032 543.996 36.0562 543.996 33.6857C543.996 31.2308 544.801 29.2835 546.414 27.8444C548.11 26.3206 550.146 25.5587 552.522 25.5587C554.896 25.5587 556.89 26.3206 558.503 27.8444C560.198 29.2835 561.048 31.2308 561.048 33.6857C561.048 36.0562 560.198 38.0032 558.503 39.5271C556.89 41.0509 554.896 41.8128 552.522 41.8128ZM596.402 119.401C592.839 119.401 589.575 118.978 586.604 118.131C583.636 117.369 580.582 116.184 577.442 114.575L576.933 100.607H583.932L586.35 111.655C589.32 113.009 592.756 113.686 596.657 113.686C601.492 113.686 605.055 112.798 607.346 111.02C609.722 109.242 610.909 106.914 610.909 104.036C610.909 101.327 609.935 99.1679 607.982 97.5593C606.032 95.8663 603.063 94.3425 599.075 92.9879L593.221 90.8291C588.557 89.1361 584.823 86.9348 582.023 84.2259C579.224 81.5169 577.824 78.0036 577.824 73.6861C577.824 70.5537 578.673 67.6331 580.369 64.9241C582.067 62.2152 584.568 60.0139 587.877 58.3209C591.185 56.6278 595.215 55.7812 599.965 55.7812C603.445 55.7812 606.582 56.2469 609.382 57.178C612.267 58.0247 615.066 59.2945 617.78 60.9876L617.271 73.9401H610.654L608.618 63.7813C605.735 62.3422 602.809 61.6225 599.838 61.6225C595.937 61.6225 592.967 62.4267 590.931 64.0352C588.98 65.559 588.004 67.6331 588.004 70.2575C588.004 73.0512 588.853 75.1677 590.549 76.6068C592.33 78.0459 595.384 79.5697 599.711 81.1782L603.655 82.5751C610.018 84.9455 614.516 87.6545 617.144 90.7021C619.86 93.7498 621.216 97.2631 621.216 101.242C621.216 104.459 620.284 107.464 618.417 110.258C616.552 112.967 613.794 115.168 610.145 116.861C606.499 118.554 601.918 119.401 596.402 119.401ZM654.505 119.401C649.329 119.401 645.257 117.708 642.289 114.321C639.32 110.851 637.876 104.924 637.962 96.5435L638.344 64.9241L629.309 63.0193V58.4479L648.015 56.6701L649.287 57.9399L648.651 75.7179V95.4006C648.651 100.903 649.5 104.798 651.196 107.083C652.892 109.284 655.437 110.385 658.831 110.385C664.77 110.385 670.707 107.633 676.646 102.131L677.028 64.7971L667.993 63.0193V58.4479L686.444 56.6701L687.717 57.9399L687.335 75.7179V111.401L695.988 113.179V117.75L678.3 118.766L677.028 107.464C673.634 111.612 669.987 114.66 666.084 116.607C662.267 118.47 658.408 119.401 654.505 119.401ZM753.251 119.02C750.197 119.02 747.652 118.131 745.616 116.353C743.58 114.575 742.307 112.205 741.798 109.242C738.321 112.628 735.267 115.168 732.636 116.861C730.008 118.554 726.827 119.401 723.092 119.401C718.428 119.401 714.398 118.089 711.004 115.464C707.695 112.755 706.041 108.776 706.041 103.528C706.041 101.073 706.594 98.7869 707.695 96.6704C708.884 94.5539 711.004 92.4799 714.058 90.4482C717.112 88.4164 721.482 86.3846 727.164 84.3529C729.117 83.6757 731.364 82.956 733.909 82.1941C736.454 81.4322 738.999 80.755 741.544 80.1624V76.9877C741.544 70.8077 740.611 66.7019 738.744 64.6701C736.879 62.6384 733.825 61.6225 729.582 61.6225C728.65 61.6225 727.59 61.6648 726.401 61.7495C725.3 61.8342 724.069 62.0457 722.711 62.3844L720.293 70.6385C719.106 74.702 716.901 76.7338 713.676 76.7338C710.113 76.7338 708.121 74.9982 707.695 71.5274C708.884 66.7019 711.684 62.8924 716.094 60.0987C720.591 57.2203 726.063 55.7812 732.509 55.7812C739.212 55.7812 744.174 57.4742 747.397 60.8606C750.622 64.1622 752.233 69.8343 752.233 77.8766V104.924C752.233 107.633 752.658 109.581 753.505 110.766C754.354 111.866 755.458 112.417 756.814 112.417C757.917 112.417 758.85 112.163 759.613 111.655C760.377 111.147 761.098 110.47 761.776 109.623L764.321 112.417C762.794 114.872 761.098 116.607 759.231 117.623C757.45 118.554 755.458 119.02 753.251 119.02ZM717.366 101.623C717.366 105.009 718.343 107.422 720.293 108.861C722.246 110.3 724.663 111.02 727.546 111.02C728.819 111.02 730.008 110.851 731.109 110.512C732.298 110.173 733.698 109.538 735.308 108.607C736.921 107.591 738.999 106.152 741.544 104.29V84.8608C739.339 85.4535 737.175 86.1307 735.054 86.8926C732.935 87.5697 731.195 88.1624 729.837 88.6704C726.19 90.1095 723.474 91.591 721.693 93.1149C719.911 94.6387 718.724 96.1203 718.13 97.5593C717.621 98.9984 717.366 100.353 717.366 101.623ZM768.241 117.75V113.179L778.421 111.401C778.504 107.93 778.548 104.544 778.548 101.242C778.631 97.8556 778.675 94.4694 778.675 91.0831V35.3365L768.241 34.0667V29.6222L788.092 23.9079L789.873 24.9238L789.364 42.9557V91.0831C789.364 94.4694 789.364 97.8556 789.364 101.242C789.447 104.628 789.533 108.014 789.619 111.401L799.799 113.179V117.75H768.241ZM807.415 117.75V113.179L816.959 111.401C817.042 108.184 817.086 104.713 817.086 100.988C817.169 97.1784 817.213 93.8768 817.213 91.0831V85.1148C817.213 81.6439 817.169 78.7655 817.086 76.4798C817.086 74.1093 817.001 71.6543 816.832 69.1146L806.652 67.9718V63.5273L826.248 55.7812L828.157 57.051L827.775 74.321V91.0831C827.775 93.8768 827.775 97.1784 827.775 100.988C827.858 104.713 827.944 108.184 828.03 111.401L836.937 113.179V117.75H807.415ZM822.431 41.8128C820.055 41.8128 818.019 41.0509 816.323 39.5271C814.71 38.0032 813.905 36.0562 813.905 33.6857C813.905 31.2308 814.71 29.2835 816.323 27.8444C818.019 26.3206 820.055 25.5587 822.431 25.5587C824.804 25.5587 826.799 26.3206 828.411 27.8444C830.107 29.2835 830.956 31.2308 830.956 33.6857C830.956 36.0562 830.107 38.0032 828.411 39.5271C826.799 41.0509 824.804 41.8128 822.431 41.8128ZM844.554 117.75V113.306L881.074 62.8924H855.37L851.934 76.9877L845.317 76.4798L846.335 57.432H893.799V62.0035L857.406 112.417H885.274L889.091 97.0514H895.708L894.436 117.75H844.554ZM933.127 61.6225C930.751 61.6225 928.333 62.2997 925.873 63.6543C923.497 65.0089 921.42 67.1676 919.638 70.1305C917.94 73.0934 916.839 77.03 916.33 81.9402H939.489C942.543 81.9402 944.535 81.3052 945.47 80.0354C946.488 78.7655 946.997 77.1994 946.997 75.3369C946.997 72.8819 946.361 70.6385 945.088 68.6067C943.899 66.4902 942.245 64.7971 940.125 63.5273C938.089 62.2574 935.755 61.6225 933.127 61.6225ZM932.999 119.401C924.43 119.401 917.558 116.649 912.385 111.147C907.209 105.559 904.623 97.898 904.623 88.1624C904.623 81.6439 905.937 75.9718 908.567 71.1464C911.281 66.321 914.844 62.5537 919.256 59.8447C923.752 57.1358 928.629 55.7812 933.89 55.7812C938.3 55.7812 942.289 56.7548 945.852 58.7018C949.415 60.6489 952.256 63.4425 954.377 67.0829C956.497 70.6385 957.559 74.9982 957.559 80.1624C957.559 81.6014 957.473 82.956 957.304 84.2259C957.133 85.411 956.922 86.4269 956.668 87.2735H916.075C916.244 95.0619 918.194 100.988 921.929 105.051C925.661 109.115 930.582 111.147 936.69 111.147C940.762 111.147 944.153 110.343 946.87 108.734C949.584 107.041 952.087 104.882 954.377 102.258L957.431 104.671C955.055 109.157 951.832 112.755 947.76 115.464C943.688 118.089 938.767 119.401 932.999 119.401ZM969.108 117.75V113.179L978.27 111.528C978.354 108.311 978.397 104.84 978.397 101.115C978.481 97.3054 978.525 93.9615 978.525 91.0831V84.9878C978.525 81.5169 978.481 78.6385 978.397 76.3528C978.397 74.0671 978.312 71.6543 978.143 69.1146L968.09 67.9718V63.5273L985.905 55.7812L987.814 57.051L989.214 72.0353C991.333 66.9559 994.049 62.9771 997.358 60.0987C1000.75 57.2203 1004.14 55.7812 1007.54 55.7812C1009.49 55.7812 1011.31 56.2044 1013.01 57.051C1014.71 57.8977 1015.94 59.0405 1016.7 60.4796C1016.7 66.6597 1014.2 69.7496 1009.19 69.7496C1007.75 69.7496 1006.39 69.4956 1005.12 68.9876C1003.85 68.395 1002.62 67.5908 1001.43 66.5749L999.903 65.1781C997.358 67.0406 995.236 69.3264 993.54 72.0353C991.842 74.7442 990.442 77.9189 989.341 81.5592V91.0831C989.341 93.8768 989.341 97.1361 989.341 100.861C989.424 104.586 989.51 108.057 989.595 111.274L1000.03 113.179V117.75H969.108Z" fill="white"/>
<path d="M411.827 26.768V38.6728C411.827 49.6351 386.965 58.5144 356.3 58.5144C325.635 58.5144 300.773 49.6351 300.773 38.6728V26.768C300.773 15.8105 325.635 6.92647 356.3 6.92647C386.965 6.92647 411.827 15.8105 411.827 26.768ZM398.244 60.176C403.177 58.3407 408.135 55.9844 411.827 53.0826V78.3557C411.827 89.318 386.965 98.197 356.3 98.197C325.635 98.197 300.773 89.318 300.773 78.3557V53.0826C304.475 55.9844 309.206 58.3407 314.37 60.176C325.478 64.1442 340.31 66.4507 356.3 66.4507C372.29 66.4507 387.113 64.1442 398.244 60.176ZM314.37 99.8589C325.478 103.827 340.31 106.134 356.3 106.134C372.29 106.134 387.113 103.827 398.244 99.8589C403.177 98.0236 408.135 95.6673 411.827 92.7655V114.07C411.827 125.033 386.965 133.912 356.3 133.912C325.635 133.912 300.773 125.033 300.773 114.07V92.7655C304.475 95.6673 309.206 98.0236 314.37 99.8589Z" fill="#DEDEDE"/>
</svg>
